<?xml version="1.0" encoding="UTF-8"?>
<svg width="48px" height="48px" viewBox="0 0 48 48" version="1.1" xmlns="http://www.w3.org/2000/svg" xmlns:xlink="http://www.w3.org/1999/xlink">
    <!-- Generator: Sketch 54.1 (76490) - https://sketchapp.com -->
    <title>质量保障</title>
    <desc>Created with Sketch.</desc>
    <g id="页面1" stroke="none" stroke-width="1" fill="none" fill-rule="evenodd">
        <g id="T恤定制" transform="translate(-974.000000, -4691.000000)">
            <g id="底图" transform="translate(0.000000, 4642.000000)">
                <g id="质量保障">
                    <g transform="translate(974.000000, 49.000000)">
                        <rect id="矩形" x="0" y="0" width="48" height="48"></rect>
                        <path d="M24.3217632,0 C24.2054524,0 12.7393701,0.0360789226 2.88,2.94644535 L2.88,23.9984967 C2.89622942,24.2751018 3.21540793,28.409145 5.91490076,33.3279048 C7.55407176,36.3164422 9.73692818,38.9953022 12.3931426,41.2833072 C15.7039434,44.127529 19.7667072,46.3914814 24.4813525,48 C29.1770634,46.3944879 33.2317125,44.1425619 36.5371035,41.3013467 C39.1960228,39.0103351 41.3761743,36.3495146 43.0180502,33.3609771 C45.7364774,28.4271845 46.0610657,24.2510492 46.08,23.9804573 L46.08,2.93441904 C36.2206299,0.0360789226 24.438074,0 24.3217632,0 Z M44.0594377,24.2570623 C44.0594377,24.2570623 42.6853472,31.7223927 37.9842264,36.7764485 C32.9152389,42.2153461 24.4867623,45.7781397 24.4867623,45.7781397 C24.4867623,45.7781397 16.2773828,42.4558722 10.9892981,36.7764485 C6.5721921,32.0380833 4.91408678,24.2570623 4.91408678,24.2570623 L4.91408678,4.51587848 C4.91408678,4.51587848 14.5705892,2.2639524 24.4867623,2.2639524 C34.1405598,2.2639524 44.0594377,4.51587848 44.0594377,4.51587848 L44.0594377,24.2570623 Z" id="形状" fill="#FFFFFF" fill-rule="nonzero"></path>
                        <path d="M15.5292421,20.3348301 L15.5292421,11.8646557 L25.3242761,11.8646557 L25.3242761,14.84903 L17.2994952,14.84903 L17.2994952,16.9280634 L25.3242761,16.9280634 L25.3242761,19.7475617 L19.0735098,19.7475617 L19.0735098,26.8980707 L20.912147,26.8980707 L20.912147,21.8385562 L31.6212798,21.8385562 L31.6212798,26.866362 L33.4632981,26.866362 L33.4632981,19.7475617 L27.1595743,19.7475617 L27.1595743,16.9280165 L35.28,16.9280165 L35.28,14.84903 L27.1595743,14.84903 L27.1595743,11.8646557 C30.013196,11.8646557 32.8109439,11.2952587 35.28,10.8191585 L33.5851047,8.88 C29.2833708,10.0398082 25.002262,9.81531409 13.6446633,9.81531409 L13.6446633,20.3348301 C13.763131,25.0781484 13.2455164,27.6555156 11.76,29.8635417 C12.0901711,30.9418735 12.4582113,31.9303325 12.7025007,32.88 C14.6045771,30.0857374 15.6477098,25.8579208 15.5292421,20.3348301 L15.5292421,20.3348301 Z M33.4212026,32.8662564 L34.5268447,30.9585253 C32.513063,30.1651031 27.1575879,26.8617182 27.1575879,26.8617182 L27.1605042,23.1162403 L25.3353916,23.1162403 L25.330658,26.8617182 C23.9311501,27.9304811 20.5304976,29.8060344 17.6961485,30.9424833 C18.0955913,31.7448645 18.0903928,31.9243285 18.432398,32.8676636 C22.4856583,31.4381434 26.1987308,28.6981516 26.1987308,28.6981516 C26.1987308,28.6981516 29.8089735,31.141132 33.4212026,32.8662564 Z" id="形状结合" fill="#FFFFFF" fill-rule="nonzero"></path>
                    </g>
                </g>
            </g>
        </g>
    </g>
</svg>